<?xml version="1.0" encoding="UTF-8"?>
<svg id="Camada_2" data-name="Camada 2" xmlns="http://www.w3.org/2000/svg" viewBox="0 0 638.8 82.54">
  <defs>
    <style>
      .cls-1 {
        fill: #fff;
        stroke-width: 0px;
      }
    </style>
  </defs>
  <g id="Camada_1-2" data-name="Camada 1">
    <g>
      <g>
        <path class="cls-1" d="M146.01,82.49c-.61,0-1.44-.07-2.01-.66-.58-.6-.63-1.48-.6-2.25l8.03-74.68c.27-2.21,2.15-3.88,4.37-3.88,1.09,0,2.14.42,2.96,1.17,1.24,1.15,3.21,3.53,5.49,6.28,2.49,3,5.31,6.41,7.48,8.54.8.78,1.86,1.22,2.98,1.22,1.28,0,2.49-.57,3.3-1.56,1.43-1.74,3.17-4.3,4.85-6.78,2.1-3.11,4.09-6.04,5.52-7.46.83-.83,1.93-1.29,3.08-1.29,2.22,0,4.06,1.59,4.36,3.79.68,4.9,1.63,12.04,2.73,20.31,2.82,21.24,6.33,47.67,7.65,53.42.25,1.09.4,2.2-.24,3-.46.57-1.22.85-2.32.85h-10.25c-3.16,0-3.58-.89-3.85-3.08l-4.94-41.42c-.07-.54-.52-.82-.94-.82-.17,0-.43.05-.66.28-.35.41-1.38,1.88-4.14,6.26-.74,1.18-2.01,1.88-3.41,1.88-1.25,0-2.41-.57-3.17-1.56-2.43-3.14-4.15-5.26-4.95-6.12-.23-.25-.49-.3-.67-.3-.41,0-.86.28-.93.82l-5.61,41.59c-.22,1.52-.53,2.51-2.62,2.51l-11.51-.03Z"/>
        <path class="cls-1" d="M105.54,82.51c-.13,0-.27,0-.42-.02h-40.75c-2.19-.08-2.26-1.65-2.3-2.58v-.29c-.3-25.3-.88-73.44-1.01-74.85-.22-2.02.71-3.39,2.63-3.85.06-.01.12-.02.19-.02h37.61c1.37.06,2.36,1.04,2.6,2.54.58,2.14-.93,12.06-1.14,13.41-.04.79-.49,1.7-2.34,1.7h-.48c-3.78,0-7.54.02-11.3.02-3.46,0-6.92,0-10.39-.04h0c-.56,0-.68.05-.71.06-.08.12-.13.68-.13,1.65v7.43c0,1.08.07,1.69.21,1.83.03.03.15.07.44.07.08,0,.17,0,.26,0,2.21-.15,4.42-.28,6.63-.4,2.82-.16,5.73-.32,8.59-.55.18-.01.36-.02.52-.02.53,0,1.3.07,1.84.66.62.67.66,1.71.54,3.16v9.9c.09.9.11,1.9-.48,2.55-.53.59-1.34.67-2.05.67,0,0-17.41-.06-17.41-.06-.72,0-.82.1-.83.11-.02.03-.14.21-.08,1.14-.33,6.71-.18,11.75,0,16.35-.07,1.04.06,1.23.09,1.26.03.03.17.12.89.12,5.69-.03,19.96-.66,26.06-.93l2.35-.1h.25c.48,0,1.18.05,1.67.55.5.51.56,1.24.55,1.81v14.37c0,.58-.04,1.31-.54,1.82-.35.35-.84.53-1.51.53h0Z"/>
        <path class="cls-1" d="M351.85,82.25c-1.58,0-3.12-.67-4.22-1.84-1.1-1.17-1.65-2.7-1.55-4.31.21-3.31.88-6.88,1.67-11.02,1.91-10.12,4.3-22.72,1.07-39.22-.45-1.89-1.72-5.12-5.08-5.12-.09,0-.18,0-.27,0-2.31.11-7.22,1.81-8.84,2.37-.34.12-.69.18-1.05.18-.97,0-1.88-.44-2.49-1.21-.61-.76-.83-1.75-.6-2.7.43-1.83.96-4.25,1.5-6.68.88-3.99,1.8-8.12,2.26-9.79.38-1.4,1.27-2.27,2.32-2.27.38,0,.75.11,1.11.33,5.66,2.61,12.27,3.95,19.58,3.95,6.16,0,12.68-1.01,18.35-2.84.35-.11.78-.31,1.24-.52.99-.45,2.02-.92,2.96-.92.43,0,.81.1,1.13.29,1.66,1.04,2.75,6.39,4.2,15.88.1.67.19,1.28.28,1.81.23.77.09,1.58-.39,2.23-.49.68-1.3,1.08-2.14,1.08l-13.48-1.16c-2.12,0-2.59.63-2.75,3.76-.33,18.24,2.38,29.11,4.36,37.06.73,2.92,1.36,5.45,1.64,7.68.32,2.5-1.17,4.92-3.8,6.17l-15.07,6.47c-.67.23-1.29.33-1.92.33h0Z"/>
        <path class="cls-1" d="M38.21,82.49c-.09,0-.18-.02-.27-.05-.29-.11-2.91-1.08-3.78-2.42l-14.27-28.09c-.33-.65-.92-1.02-1.62-1.02-.91,0-1.87.65-1.88,1.85-.04,14.02-.05,23.31,0,26.88,0,.82-.07,1.46-.5,1.89-.26.27-.61.4-1.04.4-.47,0-1.05-.18-1.75-.44H3.57c-.3.11-.6.17-.89.17-1.44,0-2.33-1.35-2.63-2.15-.03-.09-.05-.18-.05-.28V7.98C0,4.08,3.18.89,7.08.85l29.75.04c4.52.01,8.7,1.66,11.78,4.63,4.35,4.16,6.63,10.06,6.11,15.78-.88,7.11-5.06,16.78-19.93,22.57l-.24.09c-.34.1-.43.25-.47.38-.13.4.05,1.04.3,1.37.02.03.04.06.06.1l18.65,33.58c.42.59.49,1.35.17,2.01-.33.68-1.01,1.1-1.77,1.1h-13.29ZM18.4,13.9c-1.23,0-1.67.42-1.74,1.66l-.06,12.54c0,.5.19.97.54,1.32.35.35.81.55,1.3.55.08,0,.16,0,.25-.02.76-.1,1.6-.19,2.48-.29,5.5-.62,13.04-1.48,15.38-4.85,1.12-1.93,1.42-3.81.84-5.38-.54-1.46-1.81-2.57-3.67-3.22-2.92-1.3-11.51-2.23-15.23-2.31l-.08-.8v.8Z"/>
        <path class="cls-1" d="M237.02,82.04c-10.67,0-19.76-5.79-24.94-15.89-4.11-8.01-6.13-16.94-6.15-27.29,0-7.23,1.25-14.33,3.71-21.09,4.22-11.3,12.74-17.78,23.36-17.78,8.01,0,16.07,3.71,21.02,9.69,4.88,5.68,8.05,12.83,9.68,21.85,2.27,12.56.83,24.49-4.28,35.45-4.05,8.7-10.21,13.67-18.31,14.77-1.38.19-2.75.28-4.1.28h0ZM227.83,56.27c.05.49.18.6.18.6h0c1.04,0,3.45-2.34,4.75-3.6.91-.89,1.47-1.42,1.88-1.69.68-.61,1.61-1.29,2.82-1.29.64,0,1.33.19,2.08.58.45.15,1.12.51,2.2,1.1,1.68.92,4.22,2.32,5.45,2.32.21,0,.27-.04.27-.04.02-.03.09-.22.01-.68-.28-1.14-.94-2.42-1.59-3.66-1.58-3.04-3.38-6.49.17-9.4.26-.31.71-.73,1.26-1.24.9-.84,3.62-3.38,3.39-4.15-.02-.05-.18-.18-.61-.27-1.48.13-2.73.26-3.81.37-1.73.18-2.97.31-3.98.31-3.16,0-3.91-1.43-5.89-5.25-.57-1.09-1.28-2.45-2.19-4.08-.26-.28-.42-.35-.46-.36-.8.21-1.59,4.59-1.86,6.03-.26,1.46-.43,2.34-.65,2.85-.31,1.36-.9,2.32-2.73,2.61-2.46.38-4.91.87-7.5,1.39l-1.02.2c-.3.06-.38.3-.39.4-.02.1-.03.36.23.52l.64.4c2.34,1.45,4.56,2.81,6.8,4.1,1.36.79,1.85,1.78,1.64,3.31-.41,2.74-.73,5.48-1.08,8.39l-.02.2Z"/>
        <path class="cls-1" d="M287.12,82.51h-14.12c-1.66-.01-2.38-.73-2.48-2.47,0-.02,0-.05,0-.07.01-1.1,0-74.62,0-75.37,0-1.53.13-2.66.76-3.21.37-.32.87-.5,1.44-.5,1.02,0,2.24.54,3.11,1.38,2.23,2.15,9.4,10.54,16.34,18.65,5.98,7,12.15,14.21,14.78,16.99v-6.44c.01-9.04.02-19.29-.04-27.26v-.35c-.02-1.15-.03-1.91.51-2.46.44-.44,1.03-.49,1.44-.49,0,0,13.11-.03,13.11-.03.88,0,1.5.22,1.94.66.46.47.69,1.14.69,2.06v75.81c0,.82-.32,1.59-.9,2.17-.58.58-1.35.9-2.17.9h0c-.96-.03-1.78-.42-2.35-1.09-11.92-14.22-25.73-30.68-29.32-34.93-.02,5.06-.03,23.08-.03,33.2,0,.81-.04,1.66-.62,2.24-.54.54-1.33.61-1.87.61h-.22Z"/>
        <g>
          <path class="cls-1" d="M118.45,82.54c-.6,0-1.74-.15-2.72-1.16-1.11-1.15-1.62-3.05-1.51-5.64l1.26-46.31c.07-2.43,2.04-4.33,4.49-4.33.59,0,1.18.11,1.74.34,1.31.53,2.68.8,4.07.8,1.62,0,3.21-.36,4.71-1.08.62-.3,1.28-.44,1.95-.44,2.44,0,4.41,1.91,4.47,4.34l1.34,49.99c0,1.22-.78,3.45-2.65,3.45l-16.82.03c-.07,0-.18.02-.33.02Z"/>
          <path class="cls-1" d="M125.3,21.49c-5.68,0-10.3-4.62-10.3-10.3S119.62.89,125.3.89s10.3,4.62,10.3,10.3-4.62,10.3-10.3,10.3Z"/>
        </g>
      </g>
      <g>
        <path class="cls-1" d="M405.2,80.08v-35.59c0-.75.61-1.35,1.35-1.35h23.29c.75,0,1.35.61,1.35,1.35v5.06c0,.75-.61,1.35-1.35,1.35h-14.45c-.75,0-1.35.61-1.35,1.35v5.55c0,.75.61,1.35,1.35,1.35h11.43c.75,0,1.35.61,1.35,1.35v4.47c0,.75-.61,1.35-1.35,1.35h-11.43c-.75,0-1.35.61-1.35,1.35v12.4c0,.75-.61,1.35-1.35,1.35h-6.14c-.75,0-1.35-.61-1.35-1.35Z"/>
        <path class="cls-1" d="M462.8,75.02v5.06c0,.75-.61,1.35-1.35,1.35h-24.21c-.75,0-1.35-.61-1.35-1.35v-35.59c0-.75.61-1.35,1.35-1.35h23.72c.75,0,1.35.61,1.35,1.35v5.06c0,.75-.61,1.35-1.35,1.35h-14.88c-.75,0-1.35.61-1.35,1.35v4.74c0,.75.61,1.35,1.35,1.35h12.4c.75,0,1.35.61,1.35,1.35v4.47c0,.75-.61,1.35-1.35,1.35h-12.4c-.75,0-1.35.61-1.35,1.35v5.44c0,.75.61,1.35,1.35,1.35h15.36c.75,0,1.35.61,1.35,1.35Z"/>
        <path class="cls-1" d="M468.19,80.08v-35.59c0-.75.61-1.35,1.35-1.35h12.94c4.21,0,7.72.85,10.55,2.56,2.82,1.71,4.95,4.01,6.39,6.9,1.44,2.9,2.16,6.1,2.16,9.63,0,3.88-.79,7.26-2.37,10.14-1.58,2.88-3.8,5.11-6.66,6.69-2.86,1.58-6.21,2.37-10.06,2.37h-12.94c-.75,0-1.35-.61-1.35-1.35ZM492.57,62.23c0-2.23-.4-4.2-1.19-5.91-.79-1.71-1.94-3.04-3.45-3.99-1.51-.95-3.33-1.43-5.45-1.43h-4.1c-.75,0-1.35.61-1.35,1.35v20.06c0,.75.61,1.35,1.35,1.35h4.1c2.16,0,3.98-.49,5.48-1.48,1.49-.99,2.63-2.35,3.42-4.1.79-1.74,1.19-3.69,1.19-5.85Z"/>
        <path class="cls-1" d="M533.73,75.02v5.06c0,.75-.61,1.35-1.35,1.35h-24.21c-.75,0-1.35-.61-1.35-1.35v-35.59c0-.75.61-1.35,1.35-1.35h23.72c.75,0,1.35.61,1.35,1.35v5.06c0,.75-.61,1.35-1.35,1.35h-14.88c-.75,0-1.35.61-1.35,1.35v4.74c0,.75.61,1.35,1.35,1.35h12.4c.75,0,1.35.61,1.35,1.35v4.47c0,.75-.61,1.35-1.35,1.35h-12.4c-.75,0-1.35.61-1.35,1.35v5.44c0,.75.61,1.35,1.35,1.35h15.36c.75,0,1.35.61,1.35,1.35Z"/>
        <path class="cls-1" d="M539.12,80.08v-35.59c0-.75.61-1.35,1.35-1.35h15.91c1.8,0,3.46.37,4.99,1.11,1.53.74,2.85,1.73,3.96,2.97,1.11,1.24,1.99,2.64,2.62,4.18.63,1.55.94,3.11.94,4.69s-.25,3.08-.76,4.5c-.5,1.42-1.22,2.7-2.16,3.83-.67.81-1.44,1.52-2.29,2.12-.58.4-.74,1.18-.39,1.78l6.54,11.07c.53.9-.12,2.04-1.16,2.04h-6.62c-.48,0-.92-.25-1.16-.66l-6.55-11.03c-.24-.41-.69-.66-1.16-.66h-3.87c-.75,0-1.35.61-1.35,1.35v9.65c0,.75-.61,1.35-1.35,1.35h-6.14c-.75,0-1.35-.61-1.35-1.35ZM549.32,61.37h5.93c1.72,0,3.36-.93,4.08-2.5,0-.01.01-.03.02-.04.36-.79.54-1.71.54-2.75s-.21-1.95-.62-2.72c-.41-.77-.93-1.38-1.54-1.81-.61-.43-1.26-.65-1.94-.65h-6.47c-.75,0-1.35.61-1.35,1.35v7.76c0,.75.61,1.35,1.35,1.35Z"/>
        <path class="cls-1" d="M585.88,43.14h7.62c.58,0,1.09.37,1.28.91l12.23,35.59c.3.88-.35,1.79-1.28,1.79h-6.16c-.6,0-1.12-.39-1.29-.96l-2.01-6.66c-.17-.57-.7-.96-1.29-.96h-10.6c-.6,0-1.12.39-1.29.96l-2.01,6.66c-.17.57-.7.96-1.29.96h-6.16c-.93,0-1.58-.92-1.28-1.79l12.28-35.59c.19-.55.7-.91,1.28-.91ZM593.59,65.02l-2.64-8.71c-.39-1.28-2.2-1.28-2.59,0l-2.64,8.71c-.26.87.39,1.74,1.29,1.74h5.27c.91,0,1.56-.88,1.29-1.74Z"/>
        <path class="cls-1" d="M611.4,80.08v-35.59c0-.75.61-1.35,1.35-1.35h6.14c.75,0,1.35.61,1.35,1.35v27.83c0,.75.61,1.35,1.35,1.35h15.85c.75,0,1.35.61,1.35,1.35v5.06c0,.75-.61,1.35-1.35,1.35h-24.7c-.75,0-1.35-.61-1.35-1.35Z"/>
      </g>
      <g>
        <path class="cls-1" d="M404.64,29.75V3.75c0-1.5,1.22-2.71,2.71-2.71h9.01c3.45,0,6.34.7,8.65,2.1,2.32,1.4,4.06,3.29,5.24,5.66,1.18,2.38,1.77,5.01,1.77,7.9,0,3.19-.65,5.96-1.95,8.32-1.3,2.36-3.12,4.19-5.47,5.49s-5.1,1.95-8.25,1.95h-9.01c-1.5,0-2.71-1.22-2.71-2.71ZM424.64,16.7c0-1.83-.33-3.44-.97-4.85s-1.59-2.49-2.83-3.27c-1.24-.78-2.73-1.17-4.47-1.17h-1.76c-1.5,0-2.71,1.22-2.71,2.71v13.25c0,1.5,1.22,2.71,2.71,2.71h1.76c1.77,0,3.27-.41,4.49-1.22,1.22-.81,2.16-1.93,2.81-3.36.65-1.43.97-3.03.97-4.8Z"/>
        <path class="cls-1" d="M458.41,28.8v.94c0,1.5-1.22,2.71-2.71,2.71h-16.66c-1.5,0-2.71-1.22-2.71-2.71V3.75c0-1.5,1.22-2.71,2.71-2.71h16.26c1.5,0,2.71,1.22,2.71,2.71v.94c0,1.5-1.22,2.71-2.71,2.71h-9c-1.5,0-2.71,1.22-2.71,2.71v.68c0,1.5,1.22,2.71,2.71,2.71h6.96c1.5,0,2.71,1.22,2.71,2.71v.46c0,1.5-1.22,2.71-2.71,2.71h-6.96c-1.5,0-2.71,1.22-2.71,2.71v1.25c0,1.5,1.22,2.71,2.71,2.71h9.4c1.5,0,2.71,1.22,2.71,2.71Z"/>
        <path class="cls-1" d="M462.84,29.75V3.75c0-1.5,1.22-2.71,2.71-2.71h10.7c1.5,0,2.88.3,4.14.91,1.25.61,2.34,1.42,3.25,2.43.91,1.02,1.62,2.16,2.12,3.43.5,1.27.75,2.57.75,3.89,0,1.8-.42,3.51-1.26,5.13-.84,1.62-2.01,2.94-3.5,3.96-1.49,1.02-3.25,1.53-5.29,1.53h-3.66c-1.5,0-2.71,1.22-2.71,2.71v4.71c0,1.5-1.22,2.71-2.71,2.71h-1.83c-1.5,0-2.71-1.22-2.71-2.71ZM470.09,13.28c0,1.5,1.22,2.71,2.71,2.71h3.22c.56,0,1.08-.16,1.55-.49.47-.32.86-.81,1.15-1.46.29-.65.44-1.45.44-2.39s-.17-1.78-.51-2.41c-.34-.63-.77-1.1-1.28-1.39-.52-.29-1.06-.44-1.61-.44h-2.95c-1.5,0-2.71,1.22-2.71,2.71v3.16Z"/>
        <path class="cls-1" d="M503.91,32.68c-2.51,0-4.65-.42-6.42-1.26-1.77-.84-3.21-1.99-4.31-3.45-1.11-1.46-1.92-3.12-2.43-4.99-.52-1.87-.77-3.84-.77-5.9V3.75c0-1.5,1.22-2.71,2.71-2.71h1.83c1.5,0,2.71,1.22,2.71,2.71v13.32c0,1.18.12,2.32.35,3.42.24,1.1.62,2.08,1.15,2.94.53.85,1.22,1.53,2.06,2.03.84.5,1.88.75,3.12.75s2.33-.26,3.19-.77c.86-.52,1.53-1.21,2.04-2.08s.87-1.85,1.11-2.94.35-2.21.35-3.36V3.75c0-1.5,1.22-2.71,2.71-2.71h1.83c1.5,0,2.71,1.22,2.71,2.71v13.33c0,2.18-.27,4.21-.82,6.1-.55,1.89-1.38,3.54-2.5,4.97-1.12,1.43-2.56,2.54-4.32,3.34-1.76.8-3.86,1.19-6.31,1.19Z"/>
        <path class="cls-1" d="M544.7,7.41h-4.13c-1.5,0-2.71,1.22-2.71,2.71v19.62c0,1.5-1.22,2.71-2.71,2.71h-1.83c-1.5,0-2.71-1.22-2.71-2.71V10.13c0-1.5-1.22-2.71-2.71-2.71h-4.18c-1.5,0-2.71-1.22-2.71-2.71v-.94c0-1.5,1.22-2.71,2.71-2.71h20.99c1.5,0,2.71,1.22,2.71,2.71v.94c0,1.5-1.22,2.71-2.71,2.71Z"/>
        <path class="cls-1" d="M556.72,1.04h6.29c.46,0,.87.29,1.02.73l10.06,29.26c.24.7-.28,1.43-1.02,1.43h-5.12c-.48,0-.9-.31-1.03-.77l-1.67-5.5c-.14-.46-.56-.77-1.03-.77h-8.74c-.48,0-.9.31-1.03.77l-1.67,5.5c-.14.46-.56.77-1.03.77h-5.12c-.74,0-1.26-.73-1.02-1.43l10.1-29.26c.15-.44.56-.73,1.02-.73ZM563.08,19.03l-2.2-7.27c-.31-1.02-1.76-1.02-2.07,0l-2.2,7.27c-.21.69.31,1.39,1.03,1.39h4.4c.73,0,1.24-.7,1.03-1.39Z"/>
        <path class="cls-1" d="M577.68,29.75V3.75c0-1.5,1.22-2.71,2.71-2.71h9.01c3.45,0,6.34.7,8.65,2.1,2.32,1.4,4.06,3.29,5.24,5.66,1.18,2.38,1.77,5.01,1.77,7.9,0,3.19-.65,5.96-1.95,8.32-1.3,2.36-3.12,4.19-5.47,5.49s-5.1,1.95-8.25,1.95h-9.01c-1.5,0-2.71-1.22-2.71-2.71ZM597.69,16.7c0-1.83-.33-3.44-.97-4.85s-1.59-2.49-2.83-3.27c-1.24-.78-2.73-1.17-4.47-1.17h-1.76c-1.5,0-2.71,1.22-2.71,2.71v13.25c0,1.5,1.22,2.71,2.71,2.71h1.76c1.77,0,3.27-.41,4.49-1.22,1.22-.81,2.16-1.93,2.81-3.36.65-1.43.97-3.03.97-4.8Z"/>
        <path class="cls-1" d="M623.13,32.68c-2.36,0-4.49-.45-6.4-1.35-1.9-.9-3.54-2.11-4.91-3.63-1.37-1.52-2.43-3.23-3.16-5.13-.74-1.9-1.11-3.87-1.11-5.91s.39-4.09,1.17-5.98c.78-1.89,1.87-3.58,3.27-5.07,1.4-1.49,3.06-2.66,4.98-3.52,1.92-.86,4.01-1.28,6.28-1.28s4.45.45,6.35,1.35c1.9.9,3.54,2.12,4.91,3.65,1.37,1.53,2.43,3.25,3.16,5.16.74,1.9,1.11,3.84,1.11,5.82,0,2.1-.38,4.09-1.15,5.97-.77,1.89-1.86,3.58-3.28,5.07-1.42,1.49-3.08,2.67-4.98,3.54-1.9.87-3.99,1.31-6.26,1.31ZM614.95,16.75c0,1.21.18,2.38.53,3.52.35,1.14.88,2.15,1.57,3.03.69.89,1.56,1.59,2.59,2.12,1.03.53,2.21.8,3.54.8s2.6-.27,3.63-.82c1.03-.55,1.89-1.28,2.57-2.19.68-.91,1.19-1.94,1.53-3.08.34-1.14.51-2.29.51-3.47s-.18-2.37-.53-3.5c-.35-1.12-.89-2.13-1.59-3.03-.71-.9-1.58-1.6-2.61-2.1-1.03-.5-2.2-.75-3.5-.75-1.39,0-2.59.27-3.61.8-1.02.53-1.87,1.25-2.57,2.15-.69.9-1.21,1.92-1.55,3.05-.34,1.14-.51,2.29-.51,3.47Z"/>
      </g>
    </g>
  </g>
</svg>